<svg
              width="277"
              height="50"
              viewBox="0 0 277 50"
              fill="none"
              xmlns="http://www.w3.org/2000/svg"
            >
              <path
                d="M32.4042 24.2394C32.4042 28.0697 29.0882 31.3617 24.7606 31.3617C20.433 31.3617 17.117 28.0697 17.117 24.2394C17.117 20.4091 20.433 17.1171 24.7606 17.1171C29.0882 17.1171 32.4042 20.4091 32.4042 24.2394Z"
                stroke="url(#paint0_linear)"
                stroke-width="4"
              />
              <circle
                cx="24.2394"
                cy="24.2393"
                r="12.8564"
                stroke="url(#paint1_linear)"
                stroke-width="4"
              />
              <circle
                cx="24.5"
                cy="24.4999"
                r="17.8085"
                stroke="url(#paint2_linear)"
                stroke-width="4"
              />
              <circle
                cx="24.5"
                cy="24.5"
                r="22.5"
                stroke="url(#paint3_linear)"
                stroke-width="4"
              />
              <path
                d="M74.992 27.424L70.942 16.93C70.822 16.618 70.696 16.258 70.564 15.85C70.432 15.43 70.306 14.986 70.186 14.518C69.934 15.49 69.676 16.3 69.412 16.948L65.362 27.424H74.992ZM82.264 37H79.564C79.252 37 79 36.922 78.808 36.766C78.616 36.61 78.472 36.412 78.376 36.172L75.964 29.944H64.39L61.978 36.172C61.906 36.388 61.768 36.58 61.564 36.748C61.36 36.916 61.108 37 60.808 37H58.108L68.422 11.206H71.95L82.264 37ZM99.4383 18.766V37H97.5303C97.0743 37 96.7863 36.778 96.6663 36.334L96.4143 34.372C95.6223 35.248 94.7343 35.956 93.7503 36.496C92.7663 37.024 91.6383 37.288 90.3663 37.288C89.3703 37.288 88.4883 37.126 87.7203 36.802C86.9643 36.466 86.3283 35.998 85.8123 35.398C85.2963 34.798 84.9063 34.072 84.6423 33.22C84.3903 32.368 84.2643 31.426 84.2643 30.394V18.766H87.4683V30.394C87.4683 31.774 87.7803 32.842 88.4043 33.598C89.0403 34.354 90.0063 34.732 91.3023 34.732C92.2503 34.732 93.1323 34.51 93.9483 34.066C94.7763 33.61 95.5383 32.986 96.2343 32.194V18.766H99.4383ZM110.116 37.288C108.676 37.288 107.566 36.886 106.786 36.082C106.018 35.278 105.634 34.12 105.634 32.608V21.448H103.438C103.246 21.448 103.084 21.394 102.952 21.286C102.82 21.166 102.754 20.986 102.754 20.746V19.468L105.742 19.09L106.48 13.456C106.516 13.276 106.594 13.132 106.714 13.024C106.846 12.904 107.014 12.844 107.218 12.844H108.838V19.126H114.112V21.448H108.838V32.392C108.838 33.16 109.024 33.73 109.396 34.102C109.768 34.474 110.248 34.66 110.836 34.66C111.172 34.66 111.46 34.618 111.7 34.534C111.952 34.438 112.168 34.336 112.348 34.228C112.528 34.12 112.678 34.024 112.798 33.94C112.93 33.844 113.044 33.796 113.14 33.796C113.308 33.796 113.458 33.898 113.59 34.102L114.526 35.632C113.974 36.148 113.308 36.556 112.528 36.856C111.748 37.144 110.944 37.288 110.116 37.288ZM125.001 18.478C126.333 18.478 127.533 18.7 128.601 19.144C129.669 19.588 130.581 20.218 131.337 21.034C132.093 21.85 132.669 22.84 133.065 24.004C133.473 25.156 133.677 26.446 133.677 27.874C133.677 29.314 133.473 30.61 133.065 31.762C132.669 32.914 132.093 33.898 131.337 34.714C130.581 35.53 129.669 36.16 128.601 36.604C127.533 37.036 126.333 37.252 125.001 37.252C123.657 37.252 122.445 37.036 121.365 36.604C120.297 36.16 119.385 35.53 118.629 34.714C117.873 33.898 117.291 32.914 116.883 31.762C116.487 30.61 116.289 29.314 116.289 27.874C116.289 26.446 116.487 25.156 116.883 24.004C117.291 22.84 117.873 21.85 118.629 21.034C119.385 20.218 120.297 19.588 121.365 19.144C122.445 18.7 123.657 18.478 125.001 18.478ZM125.001 34.75C126.801 34.75 128.145 34.15 129.033 32.95C129.921 31.738 130.365 30.052 130.365 27.892C130.365 25.72 129.921 24.028 129.033 22.816C128.145 21.604 126.801 20.998 125.001 20.998C124.089 20.998 123.291 21.154 122.607 21.466C121.935 21.778 121.371 22.228 120.915 22.816C120.471 23.404 120.135 24.13 119.907 24.994C119.691 25.846 119.583 26.812 119.583 27.892C119.583 30.052 120.027 31.738 120.915 32.95C121.815 34.15 123.177 34.75 125.001 34.75ZM137.453 24.85H146.345V27.568H137.453V24.85ZM178.695 11.206V37H175.635V18.046C175.635 17.794 175.641 17.524 175.653 17.236C175.677 16.948 175.701 16.654 175.725 16.354L166.869 32.482C166.593 33.022 166.173 33.292 165.609 33.292H165.105C164.541 33.292 164.121 33.022 163.845 32.482L154.809 16.282C154.881 16.918 154.917 17.506 154.917 18.046V37H151.857V11.206H154.431C154.743 11.206 154.983 11.236 155.151 11.296C155.319 11.356 155.481 11.524 155.637 11.8L164.547 27.676C164.691 27.964 164.829 28.264 164.961 28.576C165.105 28.888 165.237 29.206 165.357 29.53C165.477 29.206 165.603 28.888 165.735 28.576C165.867 28.252 166.011 27.946 166.167 27.658L174.915 11.8C175.059 11.524 175.215 11.356 175.383 11.296C175.563 11.236 175.809 11.206 176.121 11.206H178.695ZM193.889 28.792C192.413 28.84 191.153 28.96 190.109 29.152C189.077 29.332 188.231 29.572 187.571 29.872C186.923 30.172 186.449 30.526 186.149 30.934C185.861 31.342 185.717 31.798 185.717 32.302C185.717 32.782 185.795 33.196 185.951 33.544C186.107 33.892 186.317 34.18 186.581 34.408C186.857 34.624 187.175 34.786 187.535 34.894C187.907 34.99 188.303 35.038 188.723 35.038C189.287 35.038 189.803 34.984 190.271 34.876C190.739 34.756 191.177 34.588 191.585 34.372C192.005 34.156 192.401 33.898 192.773 33.598C193.157 33.298 193.529 32.956 193.889 32.572V28.792ZM183.539 21.34C184.547 20.368 185.633 19.642 186.797 19.162C187.961 18.682 189.251 18.442 190.667 18.442C191.687 18.442 192.593 18.61 193.385 18.946C194.177 19.282 194.843 19.75 195.383 20.35C195.923 20.95 196.331 21.676 196.607 22.528C196.883 23.38 197.021 24.316 197.021 25.336V37H195.599C195.287 37 195.047 36.952 194.879 36.856C194.711 36.748 194.579 36.544 194.483 36.244L194.123 34.516C193.643 34.96 193.175 35.356 192.719 35.704C192.263 36.04 191.783 36.328 191.279 36.568C190.775 36.796 190.235 36.97 189.659 37.09C189.095 37.222 188.465 37.288 187.769 37.288C187.061 37.288 186.395 37.192 185.771 37C185.147 36.796 184.601 36.496 184.133 36.1C183.677 35.704 183.311 35.206 183.035 34.606C182.771 33.994 182.639 33.274 182.639 32.446C182.639 31.726 182.837 31.036 183.233 30.376C183.629 29.704 184.271 29.11 185.159 28.594C186.047 28.078 187.205 27.658 188.633 27.334C190.061 26.998 191.813 26.806 193.889 26.758V25.336C193.889 23.92 193.583 22.852 192.971 22.132C192.359 21.4 191.465 21.034 190.289 21.034C189.497 21.034 188.831 21.136 188.291 21.34C187.763 21.532 187.301 21.754 186.905 22.006C186.521 22.246 186.185 22.468 185.897 22.672C185.621 22.864 185.345 22.96 185.069 22.96C184.853 22.96 184.667 22.906 184.511 22.798C184.355 22.678 184.223 22.534 184.115 22.366L183.539 21.34ZM204.943 22.42C205.519 21.172 206.227 20.2 207.067 19.504C207.907 18.796 208.933 18.442 210.145 18.442C210.529 18.442 210.895 18.484 211.243 18.568C211.603 18.652 211.921 18.784 212.197 18.964L211.963 21.358C211.891 21.658 211.711 21.808 211.423 21.808C211.255 21.808 211.009 21.772 210.685 21.7C210.361 21.628 209.995 21.592 209.587 21.592C209.011 21.592 208.495 21.676 208.039 21.844C207.595 22.012 207.193 22.264 206.833 22.6C206.485 22.924 206.167 23.332 205.879 23.824C205.603 24.304 205.351 24.856 205.123 25.48V37H201.901V18.766H203.737C204.085 18.766 204.325 18.832 204.457 18.964C204.589 19.096 204.679 19.324 204.727 19.648L204.943 22.42ZM220.613 37.288C219.173 37.288 218.063 36.886 217.283 36.082C216.515 35.278 216.131 34.12 216.131 32.608V21.448H213.935C213.743 21.448 213.581 21.394 213.449 21.286C213.317 21.166 213.251 20.986 213.251 20.746V19.468L216.239 19.09L216.977 13.456C217.013 13.276 217.091 13.132 217.211 13.024C217.343 12.904 217.511 12.844 217.715 12.844H219.335V19.126H224.609V21.448H219.335V32.392C219.335 33.16 219.521 33.73 219.893 34.102C220.265 34.474 220.745 34.66 221.333 34.66C221.669 34.66 221.957 34.618 222.197 34.534C222.449 34.438 222.665 34.336 222.845 34.228C223.025 34.12 223.175 34.024 223.295 33.94C223.427 33.844 223.541 33.796 223.637 33.796C223.805 33.796 223.955 33.898 224.087 34.102L225.023 35.632C224.471 36.148 223.805 36.556 223.025 36.856C222.245 37.144 221.441 37.288 220.613 37.288Z"
                fill="white"
              />
              <defs>
                <linearGradient
                  id="paint0_linear"
                  x1="24.7606"
                  y1="15.1171"
                  x2="24.7606"
                  y2="33.3617"
                  gradientUnits="userSpaceOnUse"
                >
                  <stop offset="0.119792" stop-color="white" />
                  <stop offset="0.604167" stop-color="white" />
                </linearGradient>
                <linearGradient
                  id="paint1_linear"
                  x1="24.2394"
                  y1="9.38294"
                  x2="24.2394"
                  y2="39.0957"
                  gradientUnits="userSpaceOnUse"
                >
                  <stop offset="0.119792" stop-color="#E5E5E5" />
                  <stop offset="0.604167" stop-color="#2DC26F" />
                </linearGradient>
                <linearGradient
                  id="paint2_linear"
                  x1="24.5"
                  y1="4.69141"
                  x2="24.5"
                  y2="44.3084"
                  gradientUnits="userSpaceOnUse"
                >
                  <stop offset="0.119792" stop-color="white" />
                  <stop offset="0.604167" stop-color="white" />
                </linearGradient>
                <linearGradient
                  id="paint3_linear"
                  x1="24.5"
                  y1="0"
                  x2="24.5"
                  y2="49"
                  gradientUnits="userSpaceOnUse"
                >
                  <stop offset="0.119792" stop-color="#E5E5E5" />
                  <stop offset="0.604167" stop-color="#2DC26F" />
                </linearGradient>
              </defs>
            </svg>